<svg width="26" height="22" viewBox="0 0 26 22" fill="none" xmlns="http://www.w3.org/2000/svg">
<g clip-path="url(#clip0_643_101)">
<path d="M20.43 7.1079C20.4153 5.32893 19.7426 3.61839 18.5414 2.30607C17.3403 0.99375 15.6958 0.172586 13.9251 0.000904988C12.1544 -0.170776 10.3828 0.319182 8.95188 1.37631C7.521 2.43344 6.53216 3.98289 6.17601 5.7259H6.10601C4.48647 5.7259 2.93326 6.36926 1.78806 7.51445C0.642873 8.65965 -0.000488281 10.2129 -0.000488281 11.8324C-0.000488281 13.4519 0.642873 15.0052 1.78806 16.1503C2.93326 17.2955 4.48647 17.9389 6.10601 17.9389H8.34801C8.49388 17.9389 8.63378 17.881 8.73692 17.7778C8.84007 17.6747 8.89801 17.5348 8.89801 17.3889C8.89801 17.243 8.84007 17.1031 8.73692 17C8.63378 16.8968 8.49388 16.8389 8.34801 16.8389H6.10601C4.77794 16.8389 3.50426 16.3113 2.56517 15.3722C1.62609 14.4332 1.09851 13.1595 1.09851 11.8314C1.09851 10.5033 1.62609 9.22965 2.56517 8.29056C3.50426 7.35147 4.77794 6.8239 6.10601 6.8239C6.25301 6.8239 6.40601 6.8319 6.58101 6.8479C6.72282 6.86216 6.86462 6.82082 6.97655 6.73259C7.08847 6.64435 7.16177 6.51612 7.18101 6.3749C7.39022 4.84092 8.17441 3.44371 9.37487 2.46607C10.5753 1.48843 12.1024 1.00339 13.647 1.10912C15.1915 1.21486 16.6382 1.90347 17.6943 3.03557C18.7503 4.16768 19.3368 5.65872 19.335 7.2069C19.335 7.3279 19.312 7.6419 19.312 7.6419C19.3066 7.72142 19.3185 7.80117 19.347 7.87562C19.3754 7.95008 19.4197 8.01746 19.4768 8.0731C19.5339 8.12874 19.6023 8.17131 19.6775 8.19787C19.7526 8.22443 19.8327 8.23433 19.912 8.2269C20.0576 8.21227 20.2037 8.20492 20.35 8.2049C21.495 8.2049 22.593 8.65972 23.4026 9.46932C24.2122 10.2789 24.667 11.377 24.667 12.5219C24.667 13.6668 24.2122 14.7649 23.4026 15.5745C22.593 16.3841 21.495 16.8389 20.35 16.8389H17.89C17.7441 16.8389 17.6042 16.8968 17.5011 17C17.398 17.1031 17.34 17.243 17.34 17.3889C17.34 17.5348 17.398 17.6747 17.5011 17.7778C17.6042 17.881 17.7441 17.9389 17.89 17.9389H20.351C21.7767 17.9332 23.1427 17.3655 24.1525 16.3591C25.1623 15.3526 25.7346 13.9886 25.7451 12.5629C25.7556 11.1373 25.2036 9.76495 24.2087 8.74371C23.2139 7.72247 21.8555 7.13469 20.43 7.1079Z" fill="#007BC1"/>
<path d="M13.223 2.58303C12.1075 2.58675 11.0307 2.9927 10.1903 3.72636C9.34989 4.46003 8.8023 5.47218 8.64803 6.57703C8.6351 6.64995 8.63704 6.72473 8.65372 6.79688C8.67039 6.86902 8.70148 6.93705 8.74509 6.9969C8.7887 7.05675 8.84395 7.10718 8.90752 7.14516C8.97109 7.18314 9.04167 7.20789 9.11504 7.21793C9.1884 7.22796 9.26304 7.22308 9.33447 7.20358C9.40591 7.18407 9.47268 7.15033 9.53076 7.1044C9.58884 7.05847 9.63706 7.00128 9.6725 6.93626C9.70795 6.87125 9.72989 6.79974 9.73703 6.72604C9.85448 5.88407 10.2717 5.11271 10.912 4.55355C11.5524 3.99439 12.3729 3.68496 13.223 3.68204C13.3689 3.68204 13.5088 3.62409 13.6119 3.52094C13.7151 3.4178 13.773 3.2779 13.773 3.13203C13.773 2.98617 13.7151 2.84627 13.6119 2.74313C13.5088 2.63998 13.3689 2.58303 13.223 2.58303Z" fill="#007BC1"/>
<path d="M15.766 18.3199C15.6688 18.2113 15.5326 18.1457 15.3871 18.1374C15.2416 18.1292 15.0988 18.179 14.99 18.276L13.668 19.457V12.697C13.668 12.5511 13.61 12.4112 13.5069 12.308C13.4037 12.2049 13.2638 12.147 13.118 12.147C12.9721 12.147 12.8322 12.2049 12.7291 12.308C12.6259 12.4112 12.568 12.5511 12.568 12.697V19.457L11.246 18.276C11.1921 18.2279 11.1294 18.1909 11.0612 18.1671C10.9931 18.1433 10.9209 18.1332 10.8489 18.1372C10.7768 18.1413 10.7063 18.1596 10.6412 18.1909C10.5762 18.2223 10.518 18.2661 10.47 18.3199C10.4219 18.3738 10.3849 18.4366 10.3611 18.5047C10.3373 18.5729 10.3272 18.645 10.3313 18.7171C10.3354 18.7891 10.3536 18.8597 10.3849 18.9247C10.4163 18.9897 10.4601 19.0479 10.514 19.0959L12.514 20.882C12.6802 21.0306 12.8955 21.1128 13.1185 21.1128C13.3415 21.1128 13.5567 21.0306 13.723 20.882L15.723 19.0959C15.8315 18.9987 15.8969 18.8624 15.905 18.7169C15.9131 18.5714 15.8631 18.4286 15.766 18.3199Z" fill="#007BC1"/>
</g>
<defs>
<clipPath id="clip0_643_101">
<rect width="25.766" height="21.114" fill="white"/>
</clipPath>
</defs>
</svg>
