<svg width="33" height="33" viewBox="0 0 33 33" fill="none" xmlns="http://www.w3.org/2000/svg">
<g clip-path="url(#clip0_643_94)">
<path d="M12.833 28.78V32.034L12.046 31.398C11.924 31.298 6.098 25.583 6.098 25.583C6.098 25.583 0 16.767 0 13.188V12.833C0 9.42936 1.3521 6.1651 3.75885 3.75836C6.16559 1.35161 9.42984 -0.000488281 12.8335 -0.000488281C16.2372 -0.000488281 19.5014 1.35161 21.9082 3.75836C24.3149 6.1651 25.667 9.42936 25.667 12.833V13.188C25.667 13.488 25.651 13.794 25.622 14.103L23.112 11.813C22.8616 9.16559 21.5998 6.71674 19.5893 4.97626C17.5787 3.23578 14.9744 2.33778 12.3184 2.46922C9.66239 2.60065 7.15942 3.75138 5.33054 5.68186C3.50166 7.61234 2.48779 10.1738 2.5 12.833V13.188C2.5 19.236 10.3 26.557 12.833 28.78ZM20.533 26.98H24.289V23.225H20.533V26.98ZM12.833 7.51101C13.8854 7.51101 14.9142 7.82308 15.7892 8.40776C16.6642 8.99244 17.3462 9.82347 17.749 10.7958C18.1517 11.768 18.2571 12.8379 18.0518 13.8701C17.8464 14.9023 17.3397 15.8504 16.5955 16.5945C15.8514 17.3387 14.9032 17.8455 13.8711 18.0508C12.8389 18.2561 11.769 18.1507 10.7967 17.748C9.82446 17.3452 8.99343 16.6632 8.40875 15.7882C7.82407 14.9132 7.512 13.8844 7.512 12.832C7.51385 11.4215 8.07508 10.0692 9.07259 9.0719C10.0701 8.07458 11.4224 7.5126 12.833 7.51101ZM12.833 10.011C12.2759 10.011 11.7312 10.1762 11.268 10.4858C10.8047 10.7953 10.4436 11.2353 10.2304 11.75C10.0172 12.2647 9.96143 12.8311 10.0701 13.3776C10.1788 13.924 10.4471 14.426 10.8411 14.8199C11.235 15.2139 11.737 15.4822 12.2834 15.5909C12.8299 15.6996 13.3963 15.6438 13.911 15.4306C14.4258 15.2174 14.8657 14.8563 15.1753 14.3931C15.4848 13.9298 15.65 13.3852 15.65 12.828C15.6479 12.082 15.3503 11.3672 14.8223 10.8402C14.2943 10.3132 13.579 10.0168 12.833 10.016V10.011ZM30.443 25.28L29.743 24.638V28.658C29.7417 29.558 29.3836 30.4208 28.7472 31.0572C28.1108 31.6936 27.248 32.0517 26.348 32.053H18.416C17.516 32.0517 16.6532 31.6936 16.0168 31.0572C15.3804 30.4208 15.0223 29.558 15.021 28.658V24.638L14.321 25.28L12.63 23.43L22.38 14.53L32.131 23.43L30.443 25.28ZM27.235 22.353L22.38 17.924L17.525 22.353V28.653C17.5253 28.8892 17.6192 29.1157 17.7863 29.2828C17.9533 29.4498 18.1798 29.5437 18.416 29.544H26.344C26.5802 29.5437 26.8067 29.4498 26.9737 29.2828C27.1408 29.1157 27.2347 28.8892 27.235 28.653V22.353Z" fill="#007BC1"/>
</g>
<defs>
<clipPath id="clip0_643_94">
<rect width="32.13" height="32.052" fill="white"/>
</clipPath>
</defs>
</svg>
