<svg width="33" height="33" viewBox="0 0 33 33" fill="none" xmlns="http://www.w3.org/2000/svg">
<g clip-path="url(#clip0_643_96)">
<path d="M7.512 12.7082H5.038C5.22428 10.1994 6.26333 7.82991 7.98251 5.99331C9.7017 4.15671 11.9975 2.96361 14.4886 2.61224C16.9796 2.26087 19.5159 2.77237 21.676 4.06178C23.8361 5.35118 25.49 7.34085 26.363 9.70022C26.4782 10.0117 26.7125 10.2647 27.0142 10.4035C27.316 10.5422 27.6605 10.5555 27.972 10.4402C28.2835 10.325 28.5365 10.0907 28.6752 9.78898C28.814 9.48724 28.8272 9.14272 28.712 8.83122C27.6156 5.86607 25.515 3.37874 22.7753 1.80145C20.0355 0.224164 16.8297 -0.343392 13.715 0.197406C10.6002 0.738204 7.77336 2.35317 5.72562 4.76169C3.67788 7.17021 2.53869 10.22 2.506 13.3812C1.74475 13.8205 1.11246 14.4523 0.672592 15.2132C0.232725 15.9741 0.000765843 16.8373 0 17.7162L0 21.9732C0.00158786 23.3009 0.529725 24.5738 1.46856 25.5127C2.4074 26.4515 3.68028 26.9796 5.008 26.9812H7.508C7.84005 26.9812 8.1585 26.8493 8.3933 26.6145C8.62809 26.3797 8.76 26.0613 8.76 25.7292V13.9602C8.76 13.6289 8.62864 13.311 8.39471 13.0763C8.16078 12.8417 7.84336 12.7093 7.512 12.7082ZM6.26 24.4772H5.008C4.34553 24.4754 3.71071 24.2114 3.24227 23.743C2.77383 23.2745 2.50985 22.6397 2.508 21.9772V17.7162C2.50985 17.0537 2.77383 16.4189 3.24227 15.9505C3.71071 15.4821 4.34553 15.2181 5.008 15.2162H6.26V24.4772Z" fill="#007BC1"/>
<path d="M27.044 12.708H24.544C24.2119 12.708 23.8935 12.8399 23.6587 13.0747C23.4239 13.3095 23.292 13.628 23.292 13.96V27.044C23.2917 27.376 23.1597 27.6943 22.925 27.929C22.6902 28.1638 22.372 28.2957 22.04 28.296H18.222V28.336C17.9533 27.8515 17.5313 27.47 17.0222 27.2514C16.5131 27.0328 15.9458 26.9894 15.4095 27.1282C14.8731 27.267 14.3981 27.58 14.0589 28.0181C13.7197 28.4561 13.5357 28.9945 13.5357 29.5485C13.5357 30.1025 13.7197 30.6409 14.0589 31.0789C14.3981 31.517 14.8731 31.83 15.4095 31.9688C15.9458 32.1076 16.5131 32.0643 17.0222 31.8456C17.5313 31.627 17.9533 31.2455 18.222 30.761V30.801H22.041C23.0368 30.8 23.9916 30.4039 24.6957 29.6997C25.3999 28.9956 25.7959 28.0408 25.797 27.045V26.982H27.049C28.3767 26.9804 29.6496 26.4523 30.5884 25.5134C31.5273 24.5746 32.0554 23.3017 32.057 21.974V17.717C32.0557 16.3883 31.527 15.1144 30.587 14.1752C29.6471 13.236 28.3727 12.7083 27.044 12.708ZM29.544 21.973C29.5421 22.6355 29.2781 23.2703 28.8097 23.7387C28.3413 24.2072 27.7065 24.4712 27.044 24.473H25.792V15.208H27.044C27.7065 15.2099 28.3413 15.4738 28.8097 15.9423C29.2781 16.4107 29.5421 17.0455 29.544 17.708V21.973Z" fill="#007BC1"/>
</g>
<defs>
<clipPath id="clip0_643_96">
<rect width="32.052" height="32.052" fill="white"/>
</clipPath>
</defs>
</svg>
